<svg id="Layer_1" data-name="Layer 1" xmlns="http://www.w3.org/2000/svg" width="800" height="289.03" viewBox="0 0 800 289.03"><defs><style>.cls-1{fill:#ffa303;}.cls-2{fill:#ff4500;}.cls-3{fill:#ffe0ae;}.cls-4{fill:#612a00;}</style></defs><title>full logo</title><path class="cls-1" d="M798.18,1082.18c0,1,0,2-.09,3a35.75,35.75,0,0,1-2.63,10.75,76.27,76.27,0,0,1-4.37,10.9v0c-.6,1.23-1.26,2.48-1.93,3.68,0,0,0,0,0,.06a24.32,24.32,0,0,1-6.56,6.85c-1.33.94-2.66,1.83-4,2.71-1.86,1.24-3.78,2.38-5.76,3.46-2.67,1.54-5.46,2.94-8.26,4.2-1.41.65-2.83,1.25-4.26,1.82a29.18,29.18,0,0,1-10.85,2.06,13.08,13.08,0,0,1-8.57-3.15,13.25,13.25,0,0,1-4.52-7.76,11.23,11.23,0,0,1-.23-2.4v-41.33a11.91,11.91,0,0,1,6.71-10.67c7.2-3.64,12.24-9.86,14.16-19.86a50.27,50.27,0,0,0,.87-9.69c0-20.6-19.05-12.48-31.17-7.87a1.76,1.76,0,0,0-.51.3c-1.74,1.48-3.47,3-5.25,4.44a10.05,10.05,0,0,1-5.85,2.39,3.42,3.42,0,0,1-1.89-.31,1.85,1.85,0,0,1-1.07-1.47,3.73,3.73,0,0,1,.95-2.17,2.09,2.09,0,0,0,.28-2c-4.69-1.53-10.83-4.14-16.53-5.36-8.7-1.85-16.42-.48-16.42,13.12a46.82,46.82,0,0,0,.72,8.51,30,30,0,0,0,.7,3A25.09,25.09,0,0,0,694.9,1066c.66.35,1.33.65,2,1a12.92,12.92,0,0,1,6.44,11.09v40.31a16.55,16.55,0,0,1-.19,2.35,13.38,13.38,0,0,1-13.12,11,30.69,30.69,0,0,1-11.84-2.27c-1.33-.53-2.62-1.07-3.86-1.65q-3.84-1.76-7.49-3.75a111.32,111.32,0,0,1-11.74-7.51,20.69,20.69,0,0,1-6.09-6.86l0,0c-.88-1.61-1.69-3.28-2.48-5v0a77.29,77.29,0,0,1-3.69-10c-.4-1.31-.76-2.62-1.1-4a36.61,36.61,0,0,1-1.13-8.48v0a35.85,35.85,0,0,1,10.71-25.64l.18-.15c.49-.38,1-.76,1.42-1.14.61-.53,1.19-1.06,1.79-1.64a35,35,0,0,0,4.17-4.91,36,36,0,0,0,3.66-6.48,37.64,37.64,0,0,0,1.9-5.63c.12-.42.19-.83.27-1.24s.15-.67.21-1,.14-.8.21-1.2c0-.13,0-.23,0-.35a5.8,5.8,0,0,0,.12-1,23.34,23.34,0,0,1-3.23,3.71,1.78,1.78,0,0,1-1.65.41c-13.64-3.64-21.91-11.68-19-19.47,1.86-5.08,8.11-9,16.33-10.89v0c-.11-.14-.23-.26-.32-.4-.27-.34-.59-.7-1-1.1s-1-1-1.49-1.51a1.75,1.75,0,0,1,.82-2.94c3.53-.83,9.25-2.17,12.75-2.86a270.14,270.14,0,0,1,101.71,0q6.86,1.35,13.53,3a1.75,1.75,0,0,1,1,2.64l-2.26,3.58c7.45,2,13,5.73,14.79,10.49,2.88,7.79-5.36,15.83-19,19.47a1.8,1.8,0,0,1-1.68-.42,26.08,26.08,0,0,1-2.68-3,38.39,38.39,0,0,0,1.05,5.27c.16.54.32,1.12.51,1.68.25.73.51,1.47.79,2.18a36.29,36.29,0,0,0,9.61,13.42s0,0,0,0A35.84,35.84,0,0,1,798.18,1082.18Z" transform="translate(-603.05 -908.24)"/><path class="cls-2" d="M777.84,1141.14c3.81,15.09,9.86,21.06,8.07,23.15-3.14,3.54-23.54-17.78-44.34-14.09-7.49,1.31-13.38,5.6-17.74,10a6.49,6.49,0,0,1-9.16,0c-6.34-6.2-14.65-11.8-24.46-12-18.89-.43-33.88,19.3-37.27,16.11-1.7-1.6,2-6.7,7.06-23.15l1.21-4.27a6.57,6.57,0,0,1,9-4.18,124,124,0,0,0,98,.63,6.51,6.51,0,0,1,8.89,4.75C777.32,1139,777.55,1140,777.84,1141.14Z" transform="translate(-603.05 -908.24)"/><path class="cls-3" d="M769.36,977.92a3.57,3.57,0,0,1-2.93,6.25c-1.89-.32-3.78-.63-5.69-.91a280.14,280.14,0,0,0-82.72,0c-1.9.28-3.8.59-5.69.91a3.57,3.57,0,0,1-2.93-6.25,65.24,65.24,0,0,1,42.92-16c.78,0,1.55,0,2.34.06a3.94,3.94,0,0,1-.7-2.24V947.47a4.11,4.11,0,0,1,4.1-4.08h3.42a4.09,4.09,0,0,1,4.07,4.08v12.24a4.27,4.27,0,0,1-.65,2.22c.5,0,1,0,1.52,0A65.27,65.27,0,0,1,769.36,977.92Z" transform="translate(-603.05 -908.24)"/><path class="cls-4" d="M662,1035.48a23.34,23.34,0,0,0,3.23-3.71,5.8,5.8,0,0,1-.12,1c0,.12,0,.22,0,.35-.07.4-.13.81-.21,1.2s-.13.7-.21,1-.15.82-.27,1.24a37.64,37.64,0,0,1-1.9,5.63,36,36,0,0,1-3.66,6.48,35,35,0,0,1-4.17,4.91c-.6.58-1.18,1.11-1.79,1.64-.44.38-.93.76-1.42,1.14l-.18.15a35.85,35.85,0,0,0-10.71,25.64v0a36.61,36.61,0,0,0,1.13,8.48c.34,1.35.7,2.66,1.1,4a77.29,77.29,0,0,0,3.69,10v0c.79,1.69,1.6,3.36,2.48,5l0,0a20.69,20.69,0,0,0,6.09,6.86,111.32,111.32,0,0,0,11.74,7.51q3.64,2,7.49,3.75c1.24.58,2.53,1.12,3.86,1.65a30.69,30.69,0,0,0,11.84,2.27,13.38,13.38,0,0,0,13.12-11,16.55,16.55,0,0,0,.19-2.35v-40.31A12.92,12.92,0,0,0,696.9,1067c-.67-.31-1.34-.61-2-1a25.09,25.09,0,0,1-13.12-16.6,30,30,0,0,1-.7-3,46.82,46.82,0,0,1-.72-8.51c0-13.6,7.72-15,16.42-13.12,5.7,1.22,11.84,3.83,16.53,5.36a2.09,2.09,0,0,1-.28,2,3.73,3.73,0,0,0-.95,2.17,1.85,1.85,0,0,0,1.07,1.47,3.42,3.42,0,0,0,1.89.31,10.05,10.05,0,0,0,5.85-2.39c1.78-1.47,3.51-3,5.25-4.44a1.76,1.76,0,0,1,.51-.3c12.12-4.61,31.17-12.73,31.17,7.87a50.27,50.27,0,0,1-.87,9.69c-1.92,10-7,16.22-14.16,19.86a11.91,11.91,0,0,0-6.71,10.67v41.33a11.23,11.23,0,0,0,.23,2.4,13.25,13.25,0,0,0,4.52,7.76,13.08,13.08,0,0,0,8.57,3.15,29.18,29.18,0,0,0,10.85-2.06c1.43-.57,2.85-1.17,4.26-1.82,2.8-1.26,5.59-2.66,8.26-4.2,2-1.08,3.9-2.22,5.76-3.46,1.37-.88,2.7-1.77,4-2.71a24.32,24.32,0,0,0,6.56-6.85s0,0,0-.06c.67-1.2,1.33-2.45,1.93-3.68v0a76.27,76.27,0,0,0,4.37-10.9,35.75,35.75,0,0,0,2.63-10.75c.07-1,.09-2,.09-3A35.84,35.84,0,0,0,785.85,1055s0,0,0,0a36.29,36.29,0,0,1-9.61-13.42c-.28-.71-.54-1.45-.79-2.18-.19-.56-.35-1.14-.51-1.68a38.39,38.39,0,0,1-1.05-5.27,26.08,26.08,0,0,0,2.68,3,1.8,1.8,0,0,0,1.68.42c13.64-3.64,21.88-11.68,19-19.47-1.74-4.76-7.34-8.46-14.79-10.49l2.26-3.58a1.75,1.75,0,0,0-1-2.64q-6.68-1.65-13.53-3a270.14,270.14,0,0,0-101.71,0c-3.5.69-9.22,2-12.75,2.86a1.75,1.75,0,0,0-.82,2.94c.51.49,1,1,1.49,1.51s.7.76,1,1.1c.09.14.21.26.32.4v0c-8.22,1.93-14.47,5.81-16.33,10.89-2.89,7.79,5.38,15.83,19,19.47A1.78,1.78,0,0,0,662,1035.48Zm160.42-14.62a230,230,0,0,1,5.48,80.93c-8.08,70.52-44.18,97.24-118.72,95.39a105.67,105.67,0,0,1-105.38-105.36c-9.52-125,70.52-205.65,178.21-178.23,5,1.26,9.76,2.1,13.12,5.46a18.54,18.54,0,0,1,5.46,13.15Zm-36.53,143.43c1.79-2.09-4.26-8.06-8.07-23.15-.29-1.15-.52-2.17-.7-3.07a6.51,6.51,0,0,0-8.89-4.75,124,124,0,0,1-98-.63,6.57,6.57,0,0,0-9,4.18l-1.21,4.27c-5.1,16.45-8.76,21.55-7.06,23.15,3.39,3.19,18.38-16.54,37.27-16.11,9.81.23,18.12,5.83,24.46,12a6.49,6.49,0,0,0,9.16,0c4.36-4.42,10.25-8.71,17.74-10C762.37,1146.51,782.77,1167.83,785.91,1164.29ZM766.43,984.17a3.57,3.57,0,0,0,2.93-6.25,65.27,65.27,0,0,0-42.94-16c-.5,0-1,0-1.52,0a4.27,4.27,0,0,0,.65-2.22V947.47a4.09,4.09,0,0,0-4.07-4.08h-3.42a4.11,4.11,0,0,0-4.1,4.08v12.24a3.94,3.94,0,0,0,.7,2.24c-.79,0-1.56-.06-2.34-.06a65.24,65.24,0,0,0-42.92,16,3.57,3.57,0,0,0,2.93,6.25c1.89-.32,3.79-.63,5.69-.91a280.14,280.14,0,0,1,82.72,0C762.65,983.54,764.54,983.85,766.43,984.17Z" transform="translate(-603.05 -908.24)"/><path class="cls-4" d="M919.05,994.71H919a25.74,25.74,0,0,1-5.06,3.22,10.26,10.26,0,0,1-4.24,1.05A5.72,5.72,0,0,1,905,996.7q-1.83-2.26-4.66-10.6H882.26a39,39,0,0,0-2.27,5.24,12.31,12.31,0,0,0-.74,3.78,5.56,5.56,0,0,0,.1,1,8.64,8.64,0,0,0,.31,1,15.85,15.85,0,0,1-3.36,1.26,14.78,14.78,0,0,1-3.44.41,6.44,6.44,0,0,1-4.18-1.06,4.36,4.36,0,0,1-1.25-3.49q0-2.68,6.75-15.95t11.15-23.64c-.38-.78-.74-1.43-1.06-2a12.49,12.49,0,0,0-.95-1.37,19.22,19.22,0,0,1,4.28-1.82,15.16,15.16,0,0,1,4.16-.6,8.16,8.16,0,0,1,5.24,1.59c1.33,1.06,2.67,3,4,6q.81,1.77,4.49,11t7,16.54a61,61,0,0,0,3.18,6A39.17,39.17,0,0,0,919.05,994.71Zm-33.31-16.92H897c-.8-2.37-1.65-4.75-2.55-7.16s-1.85-4.84-2.85-7.32c-1,2.43-2.06,4.86-3,7.27S886.65,975.4,885.74,977.79Z" transform="translate(-603.05 -908.24)"/><path class="cls-4" d="M983.51,996.89V997a20.85,20.85,0,0,1-4,1.42,17.53,17.53,0,0,1-4,.46,5.22,5.22,0,0,1-3.76-1.13,5.31,5.31,0,0,1-1.12-3.83q0-2,.24-6.3c.16-2.83.23-5,.23-6.44q0-4.85-1.34-6.93a4.92,4.92,0,0,0-4.46-2.09,7.29,7.29,0,0,0-2.57.56,19.09,19.09,0,0,0-3.24,1.76c-.07,2.47-.12,4.62-.15,6.48s-.06,3.38-.06,4.56a45.52,45.52,0,0,0,.41,7A18.38,18.38,0,0,0,961,997a20.48,20.48,0,0,1-4,1.47,16.86,16.86,0,0,1-4,.48q-2.7,0-3.81-1.23c-.74-.82-1.11-2.26-1.11-4.31,0-.91.07-2.68.22-5.31s.22-4.82.22-6.58q0-5.22-1.28-7.29a4.67,4.67,0,0,0-4.32-2.07,8.22,8.22,0,0,0-2.89.56,16.16,16.16,0,0,0-3.19,1.73q-.13,3-.21,5.67c0,1.76-.07,3.29-.07,4.61a57,57,0,0,0,.4,7.66,15,15,0,0,0,1.28,4.61,18.71,18.71,0,0,1-4,1.47,17.17,17.17,0,0,1-4,.48,5,5,0,0,1-3.76-1.22c-.75-.8-1.12-2.18-1.12-4.11,0-1,.13-3.46.41-7.31s.41-7.17.41-9.95a48.22,48.22,0,0,0-.4-6.88,17.78,17.78,0,0,0-1.28-4.73,20,20,0,0,1,3-.75,16.61,16.61,0,0,1,2.76-.24,7.63,7.63,0,0,1,4.56,1.14,4.8,4.8,0,0,1,1.83,3.54,19.84,19.84,0,0,1,5.54-3.5,15,15,0,0,1,5.77-1.18,12.16,12.16,0,0,1,5.78,1.26,11.5,11.5,0,0,1,4.16,4.07,21.84,21.84,0,0,1,6-4,15.35,15.35,0,0,1,6.18-1.31q6,0,9,3.45t3,10.25c0,1-.05,2.44-.14,4.32s-.14,3.26-.14,4.15a44.91,44.91,0,0,0,.43,6.82A11.43,11.43,0,0,0,983.51,996.89Z" transform="translate(-603.05 -908.24)"/><path class="cls-4" d="M1029.85,980.56a18.65,18.65,0,0,1-1.15,6.49,18.21,18.21,0,0,1-3.26,5.64,19.37,19.37,0,0,1-6.92,5.26,21.51,21.51,0,0,1-8.83,1.74q-8.54,0-13.92-5a16.66,16.66,0,0,1-5.38-12.83,17.41,17.41,0,0,1,5.77-13.42q5.77-5.29,14.73-5.3,8.29,0,13.63,4.9A16.23,16.23,0,0,1,1029.85,980.56Zm-28.43,1.06a8.71,8.71,0,0,0,2.41,6.39,8.53,8.53,0,0,0,6.34,2.42,8.29,8.29,0,0,0,6.25-2.59,10,10,0,0,0,.1-13.11,8.41,8.41,0,0,0-6.35-2.47,8.22,8.22,0,0,0-6.32,2.6A9.49,9.49,0,0,0,1001.42,981.62Z" transform="translate(-603.05 -908.24)"/><path class="cls-4" d="M1073.56,993a10.21,10.21,0,0,1-2.13,5,5,5,0,0,1-3.88,1.76,5.59,5.59,0,0,1-2.15-.44,8.15,8.15,0,0,1-2.05-1.27,75.39,75.39,0,0,1-5.68-5.84q-4.61-5-8.54-8.85a63.7,63.7,0,0,0,.45,8.44,15.73,15.73,0,0,0,1.4,5.09,22,22,0,0,1-4.08,1.47,16.49,16.49,0,0,1-3.92.48c-1.86,0-3.16-.42-3.87-1.25S1038,995.24,1038,993c0-.89.12-4.17.38-9.84s.37-10.91.37-15.72a117.07,117.07,0,0,0-.43-11.88,16.68,16.68,0,0,0-1.45-5.81,22.94,22.94,0,0,1,4.24-1.52,16.41,16.41,0,0,1,3.93-.5c1.82,0,3.11.43,3.86,1.28s1.13,2.34,1.13,4.46c0,.55-.07,1.91-.21,4.1q-.64,11.55-.65,21.66a128.29,128.29,0,0,0,9.5-9.8q3.08-3.69,3.66-5.88a19.48,19.48,0,0,1,6.06,2.24,3.62,3.62,0,0,1,1.86,3.06c0,1-.74,2.28-2.22,3.77a111.76,111.76,0,0,1-10.39,8.29,53.12,53.12,0,0,1,8.32,6.93Q1070.9,992.66,1073.56,993Z" transform="translate(-603.05 -908.24)"/><path class="cls-4" d="M1105.62,989a11.24,11.24,0,0,1,1.68,2.36,4.81,4.81,0,0,1,.55,2.12q0,2.7-3.18,4.22a21,21,0,0,1-8.85,1.52q-9.49,0-14.61-4.54t-5.1-13q0-8.13,5.17-13.19t13.55-5.06q6.87,0,11.1,3.47a11,11,0,0,1,4.24,9c0,3-1,5.1-3.09,6.34s-5.7,1.86-10.92,1.86q-2.39,0-4.8-.15c-1.6-.11-3.19-.26-4.76-.46v.13a7.14,7.14,0,0,0,2.61,6q2.61,2.07,7.53,2.07a18.16,18.16,0,0,0,5.06-.65A10.7,10.7,0,0,0,1105.62,989Zm-18.55-11.1c1.8.18,3.32.32,4.56.41s2.27.14,3.06.14a8.84,8.84,0,0,0,4-.6,2.27,2.27,0,0,0,1-2.14,5.11,5.11,0,0,0-1.5-3.84,5.48,5.48,0,0,0-4-1.45,6.32,6.32,0,0,0-4.76,1.93A9.76,9.76,0,0,0,1087.07,977.93Z" transform="translate(-603.05 -908.24)"/><path class="cls-4" d="M1142.49,949.57l6.26.16c1.68,0,3,0,3.85,0q3.86,0,9.41-.38t7.33-.37a7.84,7.84,0,0,1,4.58,1,4,4,0,0,1,1.36,3.38,10.11,10.11,0,0,1-.47,2.94,17.76,17.76,0,0,1-1.44,3.28,14.85,14.85,0,0,0-4.2-1.23,44,44,0,0,0-6.42-.37c-.41,0-1.2,0-2.36.05l-4.48.15-.24,10.9c.46,0,1,.07,1.52.08s1.48,0,2.75,0q4.62,0,7.47-.25a19.39,19.39,0,0,0,4.42-.81,13.42,13.42,0,0,1,.86,2.43,9.63,9.63,0,0,1,.27,2.19,4.15,4.15,0,0,1-1.49,3.58q-1.48,1.1-4.93,1.1h-1.37c-3.32-.1-6.54-.13-9.63-.11q-.07,3.76-.12,6.9c0,2.1-.07,4-.09,5.57,1.23.09,2.39.16,3.47.19s2.09.05,3,.05a38.74,38.74,0,0,0,6.25-.44,15.89,15.89,0,0,0,4.48-1.37,22.8,22.8,0,0,1,1.26,3.28,9.54,9.54,0,0,1,.41,2.67,3.89,3.89,0,0,1-1.63,3.58q-1.65,1-6.22,1c-1,0-2.53,0-4.5-.07s-3.43-.07-4.39-.07-2.63,0-5,.07-4.33.07-5.79.07a4.14,4.14,0,0,1-2.9-.79,3.72,3.72,0,0,1-.82-2.76c0-.39.06-1.44.17-3.15q.68-10.62.68-20.39,0-8.18-.32-13.53A68.58,68.58,0,0,0,1142.49,949.57Z" transform="translate(-603.05 -908.24)"/><path class="cls-4" d="M1229.62,964.74a27,27,0,0,1,3.21-.87,14.3,14.3,0,0,1,2.7-.29,5.87,5.87,0,0,1,4.1,1.26,4.9,4.9,0,0,1,1.37,3.76,28.17,28.17,0,0,1-2.34,9.93,71.38,71.38,0,0,1-6.54,12.42,28.38,28.38,0,0,1-5.49,6.47,8.24,8.24,0,0,1-5.14,2.1q-3.24,0-5.36-3.52t-5.27-15.78q-3.16,10.18-6.42,14.74t-7.31,4.56a5.82,5.82,0,0,1-4.44-1.88c-1.19-1.25-2.48-3.74-3.9-7.48-.36-1-.87-2.33-1.53-4.13q-5.54-14.65-8.44-16.78a19.94,19.94,0,0,1,4.23-4,7.15,7.15,0,0,1,3.86-1.28q3.77,0,6.43,8.58c.43,1.32.76,2.35,1,3.1q2.33,7.19,3.3,9.5c.64,1.55,1.16,2.33,1.55,2.33s1.18-1,2-3.08,2.06-5.52,3.59-10.42l.27-.82q2.91-9.33,6.46-9.33t6.35,9.71q.93,3.21,1.47,5.05,1.68,5.4,2.56,7.5t1.44,2.1c.25,0,.57-.25,1-.77a19.7,19.7,0,0,0,1.43-2.37,41.86,41.86,0,0,0,3.52-8.34,27.43,27.43,0,0,0,1.23-7.75,9.46,9.46,0,0,0-.22-2A16.43,16.43,0,0,0,1229.62,964.74Z" transform="translate(-603.05 -908.24)"/><path class="cls-4" d="M1280.34,996.45a21.53,21.53,0,0,1-3.93,1.79,11.11,11.11,0,0,1-3.42.6,4.74,4.74,0,0,1-3.18-1,4.6,4.6,0,0,1-1.4-2.93,17.39,17.39,0,0,1-4.93,3.28,13.57,13.57,0,0,1-5.35,1,11.7,11.7,0,0,1-8.2-2.84,9.6,9.6,0,0,1-3.11-7.44,10.48,10.48,0,0,1,4.31-8.85q4.3-3.25,11.85-3.25c.69,0,1.47,0,2.34.1s1.84.17,2.89.31V976a5,5,0,0,0-1.93-4.17,8.65,8.65,0,0,0-5.42-1.5,12.6,12.6,0,0,0-5.09.95,8.86,8.86,0,0,0-3.58,2.91,5.7,5.7,0,0,1-2.09-1.68,3.72,3.72,0,0,1-.71-2.25c0-2.08,1.23-3.74,3.7-5s5.79-1.89,10-1.89q7.86,0,11.48,3.33t3.62,10.5c0,.12,0,1-.07,2.72s-.07,3.33-.07,4.9a38.51,38.51,0,0,0,.55,7.19A11.14,11.14,0,0,0,1280.34,996.45ZM1268.07,983c-.66-.11-1.3-.2-1.93-.25s-1.23-.09-1.83-.09a9.73,9.73,0,0,0-5.55,1.35,4.35,4.35,0,0,0-2,3.81,4.16,4.16,0,0,0,1.35,3.28,5.36,5.36,0,0,0,3.7,1.19,7.86,7.86,0,0,0,3.3-.68,9.93,9.93,0,0,0,3-2.18c0-.39,0-.86-.05-1.42s0-1.48,0-2.75Z" transform="translate(-603.05 -908.24)"/><path class="cls-4" d="M919.05,1066.61H919a25.84,25.84,0,0,1-5.06,3.23,10.39,10.39,0,0,1-4.24,1,5.73,5.73,0,0,1-4.66-2.27q-1.83-2.28-4.66-10.61H882.26a40.09,40.09,0,0,0-2.27,5.24,12.31,12.31,0,0,0-.74,3.78,5.67,5.67,0,0,0,.1,1,8,8,0,0,0,.31,1,15.33,15.33,0,0,1-3.36,1.26,14.26,14.26,0,0,1-3.44.41,6.44,6.44,0,0,1-4.18-1.06,4.32,4.32,0,0,1-1.25-3.48q0-2.7,6.75-16t11.15-23.64c-.38-.77-.74-1.42-1.06-1.95a12.31,12.31,0,0,0-.95-1.36,19.75,19.75,0,0,1,4.28-1.83,15.16,15.16,0,0,1,4.16-.6,8.16,8.16,0,0,1,5.24,1.59q2,1.59,4,6,.81,1.78,4.49,11t7,16.53a58.75,58.75,0,0,0,3.18,6A38.36,38.36,0,0,0,919.05,1066.61Zm-33.31-16.91H897q-1.2-3.56-2.55-7.16c-.9-2.4-1.85-4.85-2.85-7.33-1,2.44-2.06,4.86-3,7.28S886.65,1047.31,885.74,1049.7Z" transform="translate(-603.05 -908.24)"/><path class="cls-4" d="M957.13,1033.43a7.24,7.24,0,0,1,1.47,1.92,4.32,4.32,0,0,1,.48,2,3.2,3.2,0,0,1-1.46,2.78,13.14,13.14,0,0,1-5,1.62,9.31,9.31,0,0,1,1.56,2.72,9,9,0,0,1,.53,3.09,10.06,10.06,0,0,1-4,8.46q-4.05,3.09-11.12,3.09c-.75,0-1.31,0-1.67,0a9.13,9.13,0,0,1-1-.1,5.64,5.64,0,0,0-.73,1.1,2.08,2.08,0,0,0-.26.92c0,1.48,2.66,2.66,8,3.55a.37.37,0,0,0,.11,0q7.92,1.37,10.71,3.41a7,7,0,0,1,2.78,6q0,5.55-5.24,9.08t-13.72,3.53q-7.89,0-12.32-2.87a9.38,9.38,0,0,1-2.59-13.53,12.07,12.07,0,0,1,5.24-3.82,4,4,0,0,1-1.37-1.39,3.88,3.88,0,0,1-.44-1.89,5.35,5.35,0,0,1,.87-2.75,15,15,0,0,1,2.55-3.06,13.2,13.2,0,0,1-4.82-4.14,9.55,9.55,0,0,1-1.61-5.46,11.06,11.06,0,0,1,4.34-8.87,16.59,16.59,0,0,1,10.9-3.57,18.6,18.6,0,0,1,4.37.51,20.08,20.08,0,0,1,4.24,1.58,46.72,46.72,0,0,0,6-1.88A9.31,9.31,0,0,0,957.13,1033.43Zm-21.28,36.39a8.42,8.42,0,0,0-3.1,2.1,4,4,0,0,0-1,2.68,4.16,4.16,0,0,0,2.14,3.64,10.41,10.41,0,0,0,5.72,1.39,10.75,10.75,0,0,0,5.5-1.22,3.61,3.61,0,0,0,2-3.19q0-2.67-8.82-4.78C937.26,1070.19,936.44,1070,935.85,1069.82Zm3.72-27.64a6.42,6.42,0,0,0-4.37,1.42,4.64,4.64,0,0,0-1.64,3.71,4.49,4.49,0,0,0,1.69,3.58,7,7,0,0,0,8.52,0,4.51,4.51,0,0,0,1.68-3.58,4.69,4.69,0,0,0-1.63-3.71A6.2,6.2,0,0,0,939.57,1042.18Z" transform="translate(-603.05 -908.24)"/><path class="cls-4" d="M1002,1052.46a18.93,18.93,0,0,1-1.14,6.5,18.31,18.31,0,0,1-3.27,5.63,19.37,19.37,0,0,1-6.92,5.26,21.32,21.32,0,0,1-8.83,1.75q-8.53,0-13.92-5a16.67,16.67,0,0,1-5.38-12.83,17.43,17.43,0,0,1,5.77-13.43q5.78-5.3,14.73-5.29,8.29,0,13.63,4.9A16.23,16.23,0,0,1,1002,1052.46Zm-28.43,1.06a8.67,8.67,0,0,0,2.41,6.39,8.54,8.54,0,0,0,6.34,2.43,8.3,8.3,0,0,0,6.25-2.6,10,10,0,0,0,.11-13.1,8.46,8.46,0,0,0-6.36-2.48,8.26,8.26,0,0,0-6.32,2.6A9.5,9.5,0,0,0,973.54,1053.52Z" transform="translate(-603.05 -908.24)"/><path class="cls-4" d="M1032.73,1037.7a21.61,21.61,0,0,1,4.19-1.46,17.7,17.7,0,0,1,4.08-.48,5.2,5.2,0,0,1,3.2.87,2.94,2.94,0,0,1,1.14,2.48q0,1.94-5.77,15-4.27,9.68-6.9,16c-.41,1-1,2.31-1.68,4.07q-4.65,11.44-9,11.44a6.18,6.18,0,0,1-3.72-1.31,14.42,14.42,0,0,1-3.49-4.09,15.84,15.84,0,0,0,3.06-3.06,23.22,23.22,0,0,0,2.41-3.91l1.4-2.87q-6.25-15-9.57-20.72t-5.56-5.72a15.28,15.28,0,0,1,3.36-6.19,6.52,6.52,0,0,1,4.77-2.15,4.49,4.49,0,0,1,2.51.67,6.27,6.27,0,0,1,1.89,2.27q.38.69,3,7.81t5.28,13.61q3.24-7.44,4.88-12.21a24.33,24.33,0,0,0,1.64-6.82,5.52,5.52,0,0,0-.25-1.77A4.27,4.27,0,0,0,1032.73,1037.7Z" transform="translate(-603.05 -908.24)"/><path class="cls-4" d="M1066.13,1068.8a20,20,0,0,1-4.12,1.46,18,18,0,0,1-4.15.48,5.15,5.15,0,0,1-3.83-1.18c-.75-.78-1.12-2.14-1.12-4.08q0-1.12.3-6.44t.31-9.51a54,54,0,0,0-.39-7.14,16.08,16.08,0,0,0-1.28-4.69,20.09,20.09,0,0,1,4.11-1.46,17.78,17.78,0,0,1,4.09-.48,5.15,5.15,0,0,1,3.84,1.23,5.68,5.68,0,0,1,1.18,4q0,1.77-.34,7.23c-.23,3.63-.34,6.67-.34,9.14a42.8,42.8,0,0,0,.41,6.47A21.3,21.3,0,0,0,1066.13,1068.8Zm-6.22-49.75a5.71,5.71,0,0,1,4.12,1.56,5.22,5.22,0,0,1,1.62,3.94,5.73,5.73,0,0,1-2,4.39,6.78,6.78,0,0,1-4.78,1.8,5.52,5.52,0,0,1-4-1.47,5.11,5.11,0,0,1-1.52-3.86,6.08,6.08,0,0,1,1.89-4.5A6.38,6.38,0,0,1,1059.91,1019.05Z" transform="translate(-603.05 -908.24)"/><path class="cls-4" d="M1112.64,1068.8v.06a19.65,19.65,0,0,1-4,1.42,18,18,0,0,1-4.08.46,5.56,5.56,0,0,1-3.93-1.14,5.09,5.09,0,0,1-1.2-3.81c0-1.18.09-3.15.26-5.89s.25-4.92.25-6.51c0-3.42-.45-5.83-1.36-7.25a5,5,0,0,0-4.51-2.11,9.42,9.42,0,0,0-3.18.59,16.8,16.8,0,0,0-3.48,1.83c-.14,3.4-.23,5.76-.28,7.11s-.07,2.36-.07,3a54.4,54.4,0,0,0,.43,7.34,17.17,17.17,0,0,0,1.32,4.92,20.57,20.57,0,0,1-4.07,1.42,18,18,0,0,1-4.07.46c-1.86,0-3.17-.42-3.91-1.28s-1.11-2.38-1.11-4.59q0-1.33.41-6.9c.28-3.72.41-7,.41-9.74a54.39,54.39,0,0,0-.39-7.18,15.91,15.91,0,0,0-1.28-4.68,25,25,0,0,1,3-.72,17.94,17.94,0,0,1,2.77-.23,7.91,7.91,0,0,1,4.71,1.21,4.64,4.64,0,0,1,1.88,3.54,22.27,22.27,0,0,1,5.74-3.58,15.26,15.26,0,0,1,5.81-1.17q6.45,0,9.38,3.62t2.92,11.68c0,1,0,2.17-.07,3.64s-.07,2.48-.07,3a46.56,46.56,0,0,0,.43,7.1A13.25,13.25,0,0,0,1112.64,1068.8Z" transform="translate(-603.05 -908.24)"/><path class="cls-4" d="M870.44,1131.75a14.3,14.3,0,0,0,3.52,1.47,14.81,14.81,0,0,0,3.82.48,9.58,9.58,0,0,0,5.44-1.35,4.28,4.28,0,0,0,2-3.71q0-2.6-6-6.49a3.62,3.62,0,0,0-.55-.34q-6-4-7.64-6.48a10.43,10.43,0,0,1-1.65-5.93,14.26,14.26,0,0,1,1.19-5.62,15.78,15.78,0,0,1,3.35-4.93,22.17,22.17,0,0,1,7.47-5,23.92,23.92,0,0,1,9.07-1.69,7.25,7.25,0,0,1,4.51,1.22,4.26,4.26,0,0,1,1.57,3.56,8.57,8.57,0,0,1-.6,3,17.87,17.87,0,0,1-1.79,3.4,17.62,17.62,0,0,0-3-.89,16.31,16.31,0,0,0-3.14-.3,10.23,10.23,0,0,0-5.54,1.29,4,4,0,0,0-2,3.49q0,2.87,6.73,7.31l1.16.79a20.33,20.33,0,0,1,5.76,5.39,10.92,10.92,0,0,1,1.79,6.09,14.45,14.45,0,0,1-1.35,6.13,16.07,16.07,0,0,1-3.88,5.21,20.08,20.08,0,0,1-6.74,4.08,24.22,24.22,0,0,1-8.26,1.35,9.06,9.06,0,0,1-5.5-1.4,5,5,0,0,1-1.84-4.24,8.37,8.37,0,0,1,.53-2.9A13.71,13.71,0,0,1,870.44,1131.75Z" transform="translate(-603.05 -908.24)"/><path class="cls-4" d="M936.9,1140.26a21.23,21.23,0,0,1-3.93,1.79,11,11,0,0,1-3.41.6,4.71,4.71,0,0,1-3.18-1,4.52,4.52,0,0,1-1.4-2.92A17.43,17.43,0,0,1,920,1142a13.56,13.56,0,0,1-5.34,1,11.69,11.69,0,0,1-8.2-2.84,9.58,9.58,0,0,1-3.11-7.45,10.5,10.5,0,0,1,4.3-8.85q4.3-3.24,11.86-3.24c.68,0,1.46,0,2.34.1s1.84.17,2.88.31v-1.27a5,5,0,0,0-1.92-4.16,8.67,8.67,0,0,0-5.42-1.51,12.39,12.39,0,0,0-5.09,1,9,9,0,0,0-3.59,2.9,5.54,5.54,0,0,1-2.08-1.67,3.73,3.73,0,0,1-.72-2.25q0-3.12,3.71-5a22.07,22.07,0,0,1,10-1.9q7.85,0,11.48,3.33t3.62,10.51c0,.11,0,1-.07,2.72s-.07,3.33-.07,4.9a37.68,37.68,0,0,0,.55,7.19A11,11,0,0,0,936.9,1140.26Zm-12.26-13.5c-.66-.11-1.31-.2-1.93-.26s-1.24-.08-1.83-.08a9.73,9.73,0,0,0-5.55,1.35,4.36,4.36,0,0,0-2,3.81,4.16,4.16,0,0,0,1.35,3.28,5.39,5.39,0,0,0,3.71,1.19,7.93,7.93,0,0,0,3.3-.68,9.8,9.8,0,0,0,3-2.19c0-.38,0-.86-.05-1.41s0-1.48,0-2.75Z" transform="translate(-603.05 -908.24)"/><path class="cls-4" d="M981.16,1140.56a20.71,20.71,0,0,1-4,1.64,12.8,12.8,0,0,1-3.54.52,4.85,4.85,0,0,1-3.64-1.17,5.48,5.48,0,0,1-1.11-3.86v-.85a16.11,16.11,0,0,1-5.33,5,13.4,13.4,0,0,1-6.62,1.64q-5.82,0-8.82-3.38t-3-9.87c0-1,.06-2.59.18-4.91s.17-4.12.17-5.45a38.56,38.56,0,0,0-.43-6.35,11.66,11.66,0,0,0-1.32-3.93,21.2,21.2,0,0,1,4.05-1.47,16.47,16.47,0,0,1,3.91-.48,5.51,5.51,0,0,1,3.93,1.15,5,5,0,0,1,1.2,3.74q0,1.77-.29,6c-.2,2.84-.29,5.1-.29,6.78,0,3.39.39,5.76,1.16,7.09a4.2,4.2,0,0,0,4,2,7.16,7.16,0,0,0,3.73-1.06,12.38,12.38,0,0,0,3.41-3.21v-.17c.09-1.82.14-3.19.14-4.1a81,81,0,0,0-.51-10.32,16,16,0,0,0-1.68-5.77,32.12,32.12,0,0,1,4.53-1.63,15.08,15.08,0,0,1,3.74-.53c1.89,0,3.21.45,4,1.34s1.12,2.49,1.12,4.81c0,.53-.07,2.38-.2,5.57s-.21,6.12-.21,8.78a55.61,55.61,0,0,0,.43,7.81A14,14,0,0,0,981.16,1140.56Z" transform="translate(-603.05 -908.24)"/><path class="cls-4" d="M1014.56,1131.89a11.32,11.32,0,0,1,1.67,2.68,6.33,6.33,0,0,1,.55,2.54,5.17,5.17,0,0,1-2.87,4.61,15.26,15.26,0,0,1-7.83,1.71q-8.13,0-13.1-4.46a15,15,0,0,1-5-11.73,19.61,19.61,0,0,1,1.86-8.53,20.81,20.81,0,0,1,5.52-7,18.65,18.65,0,0,1,6-3.3,22.57,22.57,0,0,1,7.19-1.18,10,10,0,0,1,5.45,1.23,3.94,3.94,0,0,1,1.9,3.52,6.24,6.24,0,0,1-.69,2.79,12.38,12.38,0,0,1-2,2.88,11,11,0,0,0-2.42-1,10,10,0,0,0-2.56-.32,8.78,8.78,0,0,0-6.54,2.75,9.29,9.29,0,0,0-2.69,6.75,8.42,8.42,0,0,0,2.21,6.11,7.74,7.74,0,0,0,5.86,2.29,12.55,12.55,0,0,0,3.79-.56A15,15,0,0,0,1014.56,1131.89Z" transform="translate(-603.05 -908.24)"/><path class="cls-4" d="M1051.92,1132.84a10.91,10.91,0,0,1,1.67,2.36,4.78,4.78,0,0,1,.55,2.12c0,1.8-1.06,3.2-3.18,4.22a21,21,0,0,1-8.85,1.52q-9.49,0-14.61-4.55t-5.1-13q0-8.13,5.17-13.19t13.55-5.06q6.87,0,11.1,3.47a11,11,0,0,1,4.24,9q0,4.47-3.09,6.34t-10.92,1.86c-1.59,0-3.19-.05-4.8-.16s-3.19-.25-4.76-.46v.14a7.15,7.15,0,0,0,2.61,6q2.61,2.07,7.53,2.07a18.16,18.16,0,0,0,5.06-.65A10.83,10.83,0,0,0,1051.92,1132.84Zm-18.56-11.1c1.8.18,3.32.32,4.57.41s2.26.13,3,.13a8.88,8.88,0,0,0,4-.59,2.27,2.27,0,0,0,1-2.14,5.11,5.11,0,0,0-1.5-3.84,5.47,5.47,0,0,0-4-1.45,6.32,6.32,0,0,0-4.76,1.93A9.76,9.76,0,0,0,1033.36,1121.74Z" transform="translate(-603.05 -908.24)"/><path class="cls-1" d="M1067.31,1111.28a8.1,8.1,0,0,0,2.15-2.54,6.06,6.06,0,0,0,.85-2.89,4.16,4.16,0,0,0-.66-2.6,5.25,5.25,0,0,0-2.75-1.33,6.91,6.91,0,0,1-3.46-1.66,4.22,4.22,0,0,1-1-3,5.34,5.34,0,0,1,1.64-4,5.73,5.73,0,0,1,4.17-1.59,7.77,7.77,0,0,1,6,2.58,9.5,9.5,0,0,1,2.34,6.64,10.06,10.06,0,0,1-2.5,6.68,17,17,0,0,1-7.14,4.73l-.37-.54Z" transform="translate(-603.05 -908.24)"/><path class="cls-2" d="M1136.92,1140.19c-1,.41-2.37.88-4.09,1.4s-3.88,1.14-6.47,1.84q-5.33-6.45-12.2-14.5t-14.72-17.13c0,5.14.14,10.41.35,15.78s.33,8.2.33,8.47q0,3.56-1.25,5.08a5,5,0,0,1-4.08,1.52,15.62,15.62,0,0,1-3.91-.53,24.45,24.45,0,0,1-4.32-1.62q1.83-2.91,2.66-8.94a134.75,134.75,0,0,0,.82-17.1q0-9.12-.87-12.37a7.16,7.16,0,0,0-3.13-4.58,15.62,15.62,0,0,1,4.12-3.55,8.86,8.86,0,0,1,4.36-1.13,7.44,7.44,0,0,1,3.7,1,19.32,19.32,0,0,1,4.22,3.63q1.79,1.9,9.57,11.66t14.14,17.21c.07-2,.12-3.78.16-5.4s0-3,0-4.24a110,110,0,0,0-.7-14.35,20.87,20.87,0,0,0-2.31-7.55,28.91,28.91,0,0,1,4.14-1.55,12.17,12.17,0,0,1,3.34-.53c2.14,0,3.63.51,4.45,1.54s1.23,3,1.23,5.8q0,1.28-.36,9.21t-.36,14.64q0,5.19.27,9.14A64.84,64.84,0,0,0,1136.92,1140.19Z" transform="translate(-603.05 -908.24)"/><path class="cls-1" d="M1150.56,1111.28a7.85,7.85,0,0,0,2.15-2.54,6.08,6.08,0,0,0,.86-2.89,4.09,4.09,0,0,0-.67-2.6,5.17,5.17,0,0,0-2.75-1.33,6.92,6.92,0,0,1-3.45-1.66,4.17,4.17,0,0,1-1-3,5.3,5.3,0,0,1,1.64-4,5.73,5.73,0,0,1,4.16-1.59,7.77,7.77,0,0,1,6,2.58,9.5,9.5,0,0,1,2.34,6.64,10.1,10.1,0,0,1-2.49,6.68,17,17,0,0,1-7.14,4.73l-.38-.54Z" transform="translate(-603.05 -908.24)"/><path class="cls-4" d="M1171.42,1131.75a14.3,14.3,0,0,0,3.52,1.47,14.81,14.81,0,0,0,3.82.48,9.56,9.56,0,0,0,5.44-1.35,4.26,4.26,0,0,0,2-3.71q0-2.6-6-6.49a3.62,3.62,0,0,0-.55-.34q-6-4-7.63-6.48a10.36,10.36,0,0,1-1.66-5.93,14.1,14.1,0,0,1,1.2-5.62,15.59,15.59,0,0,1,3.34-4.93,22.17,22.17,0,0,1,7.47-5,23.92,23.92,0,0,1,9.07-1.69,7.25,7.25,0,0,1,4.51,1.22,4.26,4.26,0,0,1,1.57,3.56,8.57,8.57,0,0,1-.6,3,17.31,17.31,0,0,1-1.79,3.4,17.62,17.62,0,0,0-3-.89,16.31,16.31,0,0,0-3.14-.3,10.23,10.23,0,0,0-5.54,1.29,4,4,0,0,0-2,3.49q0,2.87,6.73,7.31l1.16.79a20.33,20.33,0,0,1,5.76,5.39,10.92,10.92,0,0,1,1.79,6.09,14.45,14.45,0,0,1-1.35,6.13,16.07,16.07,0,0,1-3.88,5.21,20.08,20.08,0,0,1-6.74,4.08,24.2,24.2,0,0,1-8.25,1.35,9,9,0,0,1-5.5-1.4,5,5,0,0,1-1.85-4.24,8.61,8.61,0,0,1,.53-2.9A13.71,13.71,0,0,1,1171.42,1131.75Z" transform="translate(-603.05 -908.24)"/><path class="cls-4" d="M1217.35,1112a17.1,17.1,0,0,1,5.18-3.35,15.81,15.81,0,0,1,6-1.1,14.1,14.1,0,0,1,10.83,4.53,16.53,16.53,0,0,1,4.2,11.7,21.14,21.14,0,0,1-.82,5.88,14.85,14.85,0,0,1-2.25,4.82,20.64,20.64,0,0,1-6.61,6.15,16.52,16.52,0,0,1-8.15,2.05,15.5,15.5,0,0,1-4.53-.63,14.71,14.71,0,0,1-4.08-2v1.4a76.12,76.12,0,0,0,.44,9.13,16.67,16.67,0,0,0,1.4,5.29,22.41,22.41,0,0,1-4,1.47,15.78,15.78,0,0,1-3.81.48c-1.83,0-3.11-.42-3.85-1.25s-1.11-2.33-1.11-4.49c0-.62.07-2.15.21-4.61q.75-12.64.75-23.44a82.26,82.26,0,0,0-.43-9.84,19.19,19.19,0,0,0-1.45-5.54,21.15,21.15,0,0,1,3-.8,15.88,15.88,0,0,1,2.77-.26,7.76,7.76,0,0,1,4.51,1.1A4.64,4.64,0,0,1,1217.35,1112Zm0,19.68a11.42,11.42,0,0,0,3,1.64,9.88,9.88,0,0,0,3.24.54,8.34,8.34,0,0,0,6.27-2.56,9,9,0,0,0,2.48-6.52,8.74,8.74,0,0,0-2.2-6.17,7.48,7.48,0,0,0-5.73-2.38,10.14,10.14,0,0,0-3.43.64,16.15,16.15,0,0,0-3.54,1.79q-.11,4.61-.12,7.5C1217.39,1128.05,1217.39,1129.89,1217.39,1131.65Z" transform="translate(-603.05 -908.24)"/><path class="cls-4" d="M1279.65,1132.84a11.35,11.35,0,0,1,1.68,2.36,4.76,4.76,0,0,1,.54,2.12c0,1.8-1.06,3.2-3.17,4.22a21,21,0,0,1-8.85,1.52q-9.51,0-14.61-4.55t-5.11-13q0-8.13,5.18-13.19t13.55-5.06c4.57,0,8.28,1.16,11.1,3.47a11.07,11.07,0,0,1,4.24,9c0,3-1,5.09-3.1,6.34s-5.7,1.86-10.91,1.86c-1.6,0-3.2-.05-4.8-.16s-3.2-.25-4.77-.46v.14a7.13,7.13,0,0,0,2.62,6q2.61,2.07,7.53,2.07a18.21,18.21,0,0,0,5.06-.65A10.7,10.7,0,0,0,1279.65,1132.84Zm-18.55-11.1c1.8.18,3.32.32,4.56.41s2.26.13,3.06.13a8.8,8.8,0,0,0,4-.59,2.27,2.27,0,0,0,1-2.14,5.08,5.08,0,0,0-1.51-3.84,5.44,5.44,0,0,0-4-1.45,6.34,6.34,0,0,0-4.77,1.93A9.69,9.69,0,0,0,1261.1,1121.74Z" transform="translate(-603.05 -908.24)"/><path class="cls-4" d="M1316.67,1131.89a11.32,11.32,0,0,1,1.67,2.68,6.33,6.33,0,0,1,.55,2.54,5.17,5.17,0,0,1-2.87,4.61,15.26,15.26,0,0,1-7.83,1.71q-8.13,0-13.1-4.46a15,15,0,0,1-5-11.73,19.61,19.61,0,0,1,1.86-8.53,20.81,20.81,0,0,1,5.52-7,18.65,18.65,0,0,1,6-3.3,22.57,22.57,0,0,1,7.19-1.18,10,10,0,0,1,5.45,1.23,3.94,3.94,0,0,1,1.9,3.52,6.24,6.24,0,0,1-.69,2.79,12.38,12.38,0,0,1-2.05,2.88,11,11,0,0,0-2.42-1,10,10,0,0,0-2.56-.32,8.78,8.78,0,0,0-6.54,2.75,9.29,9.29,0,0,0-2.69,6.75,8.42,8.42,0,0,0,2.21,6.11,7.74,7.74,0,0,0,5.86,2.29,12.55,12.55,0,0,0,3.79-.56A15,15,0,0,0,1316.67,1131.89Z" transform="translate(-603.05 -908.24)"/><path class="cls-4" d="M1339.81,1140.7a20.75,20.75,0,0,1-4.11,1.47,18.06,18.06,0,0,1-4.16.48,5.12,5.12,0,0,1-3.82-1.18c-.75-.79-1.13-2.15-1.13-4.08,0-.76.1-2.9.31-6.44s.31-6.72.31-9.52a52.07,52.07,0,0,0-.4-7.14,15.91,15.91,0,0,0-1.28-4.68,20.61,20.61,0,0,1,4.12-1.47,17.63,17.63,0,0,1,4.08-.48,5.12,5.12,0,0,1,3.84,1.23,5.69,5.69,0,0,1,1.18,4q0,1.78-.34,7.23t-.34,9.14a44,44,0,0,0,.41,6.47A21.67,21.67,0,0,0,1339.81,1140.7ZM1333.6,1091a5.68,5.68,0,0,1,4.11,1.55,5.25,5.25,0,0,1,1.63,4,5.74,5.74,0,0,1-1.95,4.39,6.83,6.83,0,0,1-4.78,1.79,5.53,5.53,0,0,1-4-1.47,5.14,5.14,0,0,1-1.52-3.86,6,6,0,0,1,1.9-4.49A6.34,6.34,0,0,1,1333.6,1091Z" transform="translate(-603.05 -908.24)"/><path class="cls-4" d="M1381,1140.26a21.53,21.53,0,0,1-3.93,1.79,11,11,0,0,1-3.41.6,4.71,4.71,0,0,1-3.18-1,4.52,4.52,0,0,1-1.4-2.92,17.43,17.43,0,0,1-4.94,3.28,13.56,13.56,0,0,1-5.34,1,11.69,11.69,0,0,1-8.2-2.84,9.58,9.58,0,0,1-3.11-7.45,10.5,10.5,0,0,1,4.3-8.85q4.3-3.24,11.86-3.24c.68,0,1.46,0,2.34.1s1.84.17,2.88.31v-1.27a5,5,0,0,0-1.92-4.16,8.67,8.67,0,0,0-5.42-1.51,12.39,12.39,0,0,0-5.09,1,9,9,0,0,0-3.59,2.9,5.54,5.54,0,0,1-2.08-1.67,3.73,3.73,0,0,1-.72-2.25c0-2.08,1.23-3.75,3.71-5a22.07,22.07,0,0,1,10-1.9q7.85,0,11.47,3.33t3.63,10.51c0,.11,0,1-.07,2.72s-.07,3.33-.07,4.9a37.68,37.68,0,0,0,.55,7.19A11,11,0,0,0,1381,1140.26Zm-12.26-13.5c-.66-.11-1.3-.2-1.93-.26s-1.24-.08-1.83-.08a9.73,9.73,0,0,0-5.55,1.35,4.36,4.36,0,0,0-2,3.81,4.16,4.16,0,0,0,1.35,3.28,5.39,5.39,0,0,0,3.71,1.19,7.93,7.93,0,0,0,3.3-.68,9.8,9.8,0,0,0,3-2.19c0-.38,0-.86,0-1.41s0-1.48,0-2.75Z" transform="translate(-603.05 -908.24)"/><path class="cls-4" d="M1403.05,1140.7a30.94,30.94,0,0,1-4.41,1.45,16.2,16.2,0,0,1-3.79.5c-1.91,0-3.23-.45-3.95-1.35s-1.07-2.67-1.07-5.32c0-.7.14-4,.43-10s.42-11.55.42-16.81a79.35,79.35,0,0,0-.48-10.06,16.7,16.7,0,0,0-1.57-5.55,23.16,23.16,0,0,1,4.2-1.53,17.3,17.3,0,0,1,4-.49,4.94,4.94,0,0,1,3.86,1.3c.78.86,1.16,2.3,1.16,4.3q0,1.3-.37,9.48t-.38,15q0,8.24.45,12.5A20.77,20.77,0,0,0,1403.05,1140.7Z" transform="translate(-603.05 -908.24)"/><path class="cls-2" d="M1121,1039.86c-.23.22-.44.46-.65.7.21-.24.42-.48.64-.7Z" transform="translate(-603.05 -908.24)"/></svg>