<svg id="Layer_1" data-name="Layer 1" xmlns="http://www.w3.org/2000/svg" width="226.28" height="289.04" viewBox="0 0 226.28 289.04"><defs><style>.cls-1{fill:#ff4500;}.cls-2{fill:#ffa303;}.cls-3{fill:#ffe0ae;}.cls-4{fill:#612a00;}</style></defs><title>icon</title><path class="cls-1" d="M1069.71,1111.53c-3.13,3.53-23.53-17.77-44.32-14.08-7.5,1.3-13.41,5.6-17.75,10a6.47,6.47,0,0,1-9.16,0c-6.34-6.18-14.64-11.8-24.46-12-18.89-.42-33.87,19.31-37.26,16.11-1.71-1.59,2-6.69,7-23.16l1.21-4.26a6.56,6.56,0,0,1,9-4.17,123.93,123.93,0,0,0,98,.62,6.53,6.53,0,0,1,8.9,4.74c.18.92.4,1.94.7,3.07C1065.45,1103.48,1071.51,1109.43,1069.71,1111.53Z" transform="translate(-886.86 -855.48)"/><path class="cls-2" d="M1019.88,1065.64v-41.32a11.9,11.9,0,0,1,6.72-10.67c7.2-3.64,12.24-9.87,14.16-19.86a49.53,49.53,0,0,0,.87-9.7c0-20.6-19-12.47-31.17-7.86a2.16,2.16,0,0,0-.51.29c-1.73,1.47-3.47,3-5.25,4.44a10.06,10.06,0,0,1-5.85,2.4,3.71,3.71,0,0,1-1.89-.31,1.92,1.92,0,0,1-1.07-1.47,3.57,3.57,0,0,1,1-2.17,2.19,2.19,0,0,0,.28-2c-4.69-1.51-10.86-4.13-16.54-5.36-8.7-1.83-16.41-.46-16.41,13.12a46.73,46.73,0,0,0,.71,8.52c.18,1,.43,2,.7,3a25.09,25.09,0,0,0,13.12,16.6c.65.35,1.33.65,2,1a12.91,12.91,0,0,1,6.45,11.1v40.3a16.57,16.57,0,0,1-.2,2.36,13.38,13.38,0,0,1-13.12,11,30.64,30.64,0,0,1-11.83-2.27c-1.34-.53-2.62-1.09-3.87-1.66-2.56-1.17-5.06-2.41-7.49-3.74a115.73,115.73,0,0,1-11.74-7.51,21,21,0,0,1-6.09-6.86s0,0,0,0c-.88-1.63-1.69-3.28-2.48-5v0a76.24,76.24,0,0,1-3.69-10c-.39-1.31-.76-2.63-1.09-4a37.09,37.09,0,0,1-1.15-8.47v0a35.84,35.84,0,0,1,10.72-25.64l.19-.17a17.87,17.87,0,0,0,1.41-1.13c.62-.53,1.19-1.07,1.78-1.64a35.76,35.76,0,0,0,4.19-4.9,36.74,36.74,0,0,0,3.65-6.5,35.18,35.18,0,0,0,1.91-5.63c.11-.41.18-.81.26-1.22s.14-.68.21-1,.14-.8.2-1.22a1.24,1.24,0,0,0,0-.33,7.35,7.35,0,0,0,.13-1,24.33,24.33,0,0,1-3.24,3.71,1.77,1.77,0,0,1-1.65.4c-13.66-3.64-21.9-11.67-19-19.46,1.86-5.08,8.11-9,16.33-10.9h0c-.11-.15-.22-.27-.32-.42-.27-.32-.59-.69-1-1.08s-1-1-1.48-1.52a1.74,1.74,0,0,1,.81-2.93c3.53-.84,9.24-2.17,12.76-2.86A270.14,270.14,0,0,1,1054,944c4.55.9,9.07,1.89,13.52,3a1.75,1.75,0,0,1,1,2.64l-2.26,3.57c7.45,2,13.06,5.74,14.79,10.5,2.87,7.77-5.36,15.81-19,19.46a1.77,1.77,0,0,1-1.68-.42,25.1,25.1,0,0,1-2.68-3,38,38,0,0,0,1,5.26c.16.55.33,1.12.51,1.69.25.72.52,1.47.8,2.18a36,36,0,0,0,9.6,13.4l0,0a36,36,0,0,1,12.32,27.17c0,1,0,2-.09,3a35.73,35.73,0,0,1-2.63,10.77,76,76,0,0,1-4.37,10.9v0c-.61,1.22-1.26,2.48-1.94,3.68,0,0,0,0,0,.06a24.12,24.12,0,0,1-6.56,6.83c-1.33,1-2.66,1.85-4,2.73-1.86,1.22-3.79,2.37-5.75,3.46-2.68,1.53-5.47,2.94-8.27,4.19-1.41.66-2.82,1.26-4.25,1.82a29.52,29.52,0,0,1-10.86,2.07,13.25,13.25,0,0,1-8.58-3.15,13.39,13.39,0,0,1-4.52-7.76A12,12,0,0,1,1019.88,1065.64Z" transform="translate(-886.86 -855.48)"/><path class="cls-3" d="M1009.35,894.7v12.24a4.27,4.27,0,0,1-.64,2.24c.5,0,1,0,1.52,0a65.19,65.19,0,0,1,42.94,16,3.58,3.58,0,0,1-2.93,6.26c-1.89-.32-3.78-.63-5.68-.91a280.28,280.28,0,0,0-82.74,0c-1.89.28-3.79.59-5.7.91a3.58,3.58,0,0,1-2.92-6.26,65.24,65.24,0,0,1,42.93-16c.79,0,1.56,0,2.34.05a3.92,3.92,0,0,1-.7-2.25V894.7a4.1,4.1,0,0,1,4.09-4.06h3.42A4.07,4.07,0,0,1,1009.35,894.7Z" transform="translate(-886.86 -855.48)"/><path class="cls-4" d="M887.63,1039.05c-9.52-125,70.52-205.64,178.21-178.21,5,1.26,9.76,2.1,13.12,5.46a18.5,18.5,0,0,1,5.47,13.14l21.81,88.67a229.32,229.32,0,0,1,5.48,80.93c-8.07,70.52-44.18,97.24-118.71,95.39a105.67,105.67,0,0,1-105.38-105.38Zm49.13,72.48c3.39,3.2,18.37-16.53,37.26-16.11,9.82.22,18.12,5.84,24.46,12a6.47,6.47,0,0,0,9.16,0c4.34-4.41,10.25-8.71,17.75-10,20.79-3.69,41.19,17.61,44.32,14.08,1.8-2.1-4.26-8-8-23.16-.3-1.13-.52-2.15-.7-3.07a6.53,6.53,0,0,0-8.9-4.74,123.93,123.93,0,0,1-98-.62,6.56,6.56,0,0,0-9,4.17l-1.21,4.26C938.72,1104.84,935.05,1109.94,936.76,1111.53Zm7.42-128.4a1.77,1.77,0,0,0,1.65-.4,24.33,24.33,0,0,0,3.24-3.71,7.35,7.35,0,0,1-.13,1,1.24,1.24,0,0,1,0,.33c-.06.42-.11.83-.2,1.22s-.12.69-.21,1-.15.81-.26,1.22a35.18,35.18,0,0,1-1.91,5.63,36.74,36.74,0,0,1-3.65,6.5,35.76,35.76,0,0,1-4.19,4.9c-.59.57-1.16,1.11-1.78,1.64a17.87,17.87,0,0,1-1.41,1.13l-.19.17a35.84,35.84,0,0,0-10.72,25.64v0a37.09,37.09,0,0,0,1.15,8.47c.33,1.35.7,2.67,1.09,4a76.24,76.24,0,0,0,3.69,10v0c.79,1.69,1.6,3.34,2.48,5,0,0,0,0,0,0a21,21,0,0,0,6.09,6.86,115.73,115.73,0,0,0,11.74,7.51c2.43,1.33,4.93,2.57,7.49,3.74,1.25.57,2.53,1.13,3.87,1.66a30.64,30.64,0,0,0,11.83,2.27A13.38,13.38,0,0,0,987,1068a16.57,16.57,0,0,0,.2-2.36v-40.3a12.91,12.91,0,0,0-6.45-11.1c-.67-.31-1.35-.61-2-1a25.09,25.09,0,0,1-13.12-16.6c-.27-1-.52-1.95-.7-3a46.73,46.73,0,0,1-.71-8.52c0-13.58,7.71-15,16.41-13.12,5.68,1.23,11.85,3.85,16.54,5.36a2.19,2.19,0,0,1-.28,2,3.57,3.57,0,0,0-1,2.17,1.92,1.92,0,0,0,1.07,1.47,3.71,3.71,0,0,0,1.89.31,10.06,10.06,0,0,0,5.85-2.4c1.78-1.47,3.52-3,5.25-4.44a2.16,2.16,0,0,1,.51-.29c12.13-4.61,31.17-12.74,31.17,7.86a49.53,49.53,0,0,1-.87,9.7c-1.92,10-7,16.22-14.16,19.86a11.9,11.9,0,0,0-6.72,10.67v41.32a12,12,0,0,0,.23,2.41,13.39,13.39,0,0,0,4.52,7.76,13.25,13.25,0,0,0,8.58,3.15,29.52,29.52,0,0,0,10.86-2.07c1.43-.56,2.84-1.16,4.25-1.82,2.8-1.25,5.59-2.66,8.27-4.19,2-1.09,3.89-2.24,5.75-3.46,1.37-.88,2.7-1.78,4-2.73a24.12,24.12,0,0,0,6.56-6.83s0,0,0-.06c.68-1.2,1.33-2.46,1.94-3.68v0a76,76,0,0,0,4.37-10.9,35.73,35.73,0,0,0,2.63-10.77c.07-1,.09-2,.09-3a36,36,0,0,0-12.32-27.17l0,0a36,36,0,0,1-9.6-13.4c-.28-.71-.55-1.46-.8-2.18-.18-.57-.35-1.14-.51-1.69a38,38,0,0,1-1-5.26,25.1,25.1,0,0,0,2.68,3,1.77,1.77,0,0,0,1.68.42c13.64-3.65,21.87-11.69,19-19.46-1.73-4.76-7.34-8.46-14.79-10.5l2.26-3.57a1.75,1.75,0,0,0-1-2.64c-4.45-1.12-9-2.11-13.52-3a270.14,270.14,0,0,0-101.71,0c-3.52.69-9.23,2-12.76,2.86a1.74,1.74,0,0,0-.81,2.93c.5.5,1,1,1.48,1.52s.7.76,1,1.08c.1.15.21.27.32.42h0c-8.22,1.92-14.47,5.82-16.33,10.9C922.28,971.46,930.52,979.49,944.18,983.13Zm66.05-74c-.5,0-1,0-1.52,0a4.27,4.27,0,0,0,.64-2.24V894.7a4.07,4.07,0,0,0-4.07-4.06h-3.42a4.1,4.1,0,0,0-4.09,4.06v12.24a3.92,3.92,0,0,0,.7,2.25c-.78,0-1.55-.05-2.34-.05a65.24,65.24,0,0,0-42.93,16,3.58,3.58,0,0,0,2.92,6.26c1.91-.32,3.81-.63,5.7-.91a280.28,280.28,0,0,1,82.74,0c1.9.28,3.79.59,5.68.91a3.58,3.58,0,0,0,2.93-6.26A65.19,65.19,0,0,0,1010.23,909.14Z" transform="translate(-886.86 -855.48)"/></svg>